<svg width="335" height="567" viewBox="0 0 335 567" fill="none" xmlns="http://www.w3.org/2000/svg">
<g clip-path="url(#clip0)">
<path fill-rule="evenodd" clip-rule="evenodd" d="M51.6966 516.011C45.986 516.011 41.3571 511.534 41.3571 506.011C41.3571 500.488 45.986 496.011 51.6966 496.011C57.4071 496.011 62.0361 500.488 62.0361 506.011C67.7466 506.011 72.3756 510.488 72.3756 516.011C72.3756 521.534 67.7466 526.011 62.0361 526.011C56.3256 526.011 51.6966 521.534 51.6966 516.011ZM10.3385 556.011C4.62802 556.011 -0.000976562 551.534 -0.000976562 546.011C-0.000976562 540.488 4.62802 536.011 10.3385 536.011C16.049 536.011 20.678 540.488 20.678 546.011C26.3885 546.011 31.0175 550.488 31.0175 556.011C31.0175 561.534 26.3885 566.011 20.678 566.011C14.9675 566.011 10.3385 561.534 10.3385 556.011ZM18.6101 546.011C18.6101 541.593 14.9065 538.011 10.3385 538.011C5.77054 538.011 2.06692 541.593 2.06692 546.011C2.06692 550.429 5.77054 554.011 10.3385 554.011C14.9065 554.011 18.6101 550.429 18.6101 546.011ZM59.9682 506.011C59.9682 501.593 56.2646 498.011 51.6966 498.011C47.1286 498.011 43.425 501.593 43.425 506.011C43.425 510.429 47.1286 514.011 51.6966 514.011C56.2646 514.011 59.9682 510.429 59.9682 506.011Z" fill="black"/>
<path fill-rule="evenodd" clip-rule="evenodd" d="M51.6966 434.011C45.986 434.011 41.3571 429.534 41.3571 424.011C41.3571 418.488 45.986 414.011 51.6966 414.011C57.4071 414.011 62.0361 418.488 62.0361 424.011C67.7466 424.011 72.3756 428.488 72.3756 434.011C72.3756 439.534 67.7466 444.011 62.0361 444.011C56.3256 444.011 51.6966 439.534 51.6966 434.011ZM10.3385 474.011C4.62802 474.011 -0.000976562 469.534 -0.000976562 464.011C-0.000976562 458.488 4.62802 454.011 10.3385 454.011C16.049 454.011 20.678 458.488 20.678 464.011C26.3885 464.011 31.0175 468.488 31.0175 474.011C31.0175 479.534 26.3885 484.011 20.678 484.011C14.9675 484.011 10.3385 479.534 10.3385 474.011ZM18.6101 464.011C18.6101 459.593 14.9065 456.011 10.3385 456.011C5.77054 456.011 2.06692 459.593 2.06692 464.011C2.06692 468.429 5.77054 472.011 10.3385 472.011C14.9065 472.011 18.6101 468.429 18.6101 464.011ZM59.9682 424.011C59.9682 419.593 56.2646 416.011 51.6966 416.011C47.1286 416.011 43.425 419.593 43.425 424.011C43.425 428.429 47.1286 432.011 51.6966 432.011C56.2646 432.011 59.9682 428.429 59.9682 424.011Z" fill="black"/>
<path fill-rule="evenodd" clip-rule="evenodd" d="M51.6966 352.011C45.986 352.011 41.3571 347.534 41.3571 342.011C41.3571 336.488 45.986 332.011 51.6966 332.011C57.4071 332.011 62.0361 336.488 62.0361 342.011C67.7466 342.011 72.3756 346.488 72.3756 352.011C72.3756 357.534 67.7466 362.011 62.0361 362.011C56.3256 362.011 51.6966 357.534 51.6966 352.011ZM10.3385 392.011C4.62802 392.011 -0.000976562 387.534 -0.000976562 382.011C-0.000976562 376.488 4.62802 372.011 10.3385 372.011C16.049 372.011 20.678 376.488 20.678 382.011C26.3885 382.011 31.0175 386.488 31.0175 392.011C31.0175 397.534 26.3885 402.011 20.678 402.011C14.9675 402.011 10.3385 397.534 10.3385 392.011ZM18.6101 382.011C18.6101 377.593 14.9065 374.011 10.3385 374.011C5.77054 374.011 2.06692 377.593 2.06692 382.011C2.06692 386.429 5.77054 390.011 10.3385 390.011C14.9065 390.011 18.6101 386.429 18.6101 382.011ZM59.9682 342.011C59.9682 337.593 56.2646 334.011 51.6966 334.011C47.1286 334.011 43.425 337.593 43.425 342.011C43.425 346.429 47.1286 350.011 51.6966 350.011C56.2646 350.011 59.9682 346.429 59.9682 342.011Z" fill="black"/>
<path fill-rule="evenodd" clip-rule="evenodd" d="M51.6966 270.011C45.986 270.011 41.3571 265.534 41.3571 260.011C41.3571 254.488 45.986 250.011 51.6966 250.011C57.4071 250.011 62.0361 254.488 62.0361 260.011C67.7466 260.011 72.3756 264.488 72.3756 270.011C72.3756 275.534 67.7466 280.011 62.0361 280.011C56.3256 280.011 51.6966 275.534 51.6966 270.011ZM10.3385 310.011C4.62802 310.011 -0.000976562 305.534 -0.000976562 300.011C-0.000976562 294.488 4.62802 290.011 10.3385 290.011C16.049 290.011 20.678 294.488 20.678 300.011C26.3885 300.011 31.0175 304.488 31.0175 310.011C31.0175 315.534 26.3885 320.011 20.678 320.011C14.9675 320.011 10.3385 315.534 10.3385 310.011ZM18.6101 300.011C18.6101 295.593 14.9065 292.011 10.3385 292.011C5.77054 292.011 2.06692 295.593 2.06692 300.011C2.06692 304.429 5.77054 308.011 10.3385 308.011C14.9065 308.011 18.6101 304.429 18.6101 300.011ZM59.9682 260.011C59.9682 255.593 56.2646 252.011 51.6966 252.011C47.1286 252.011 43.425 255.593 43.425 260.011C43.425 264.429 47.1286 268.011 51.6966 268.011C56.2646 268.011 59.9682 264.429 59.9682 260.011Z" fill="black"/>
<path fill-rule="evenodd" clip-rule="evenodd" d="M51.6966 188.011C45.986 188.011 41.3571 183.534 41.3571 178.011C41.3571 172.488 45.986 168.011 51.6966 168.011C57.4071 168.011 62.0361 172.488 62.0361 178.011C67.7466 178.011 72.3756 182.488 72.3756 188.011C72.3756 193.534 67.7466 198.011 62.0361 198.011C56.3256 198.011 51.6966 193.534 51.6966 188.011ZM10.3385 228.011C4.62802 228.011 -0.000976562 223.534 -0.000976562 218.011C-0.000976562 212.488 4.62802 208.011 10.3385 208.011C16.049 208.011 20.678 212.488 20.678 218.011C26.3885 218.011 31.0175 222.488 31.0175 228.011C31.0175 233.534 26.3885 238.011 20.678 238.011C14.9675 238.011 10.3385 233.534 10.3385 228.011ZM18.6101 218.011C18.6101 213.593 14.9065 210.011 10.3385 210.011C5.77054 210.011 2.06692 213.593 2.06692 218.011C2.06692 222.429 5.77054 226.011 10.3385 226.011C14.9065 226.011 18.6101 222.429 18.6101 218.011ZM59.9682 178.011C59.9682 173.593 56.2646 170.011 51.6966 170.011C47.1286 170.011 43.425 173.593 43.425 178.011C43.425 182.429 47.1286 186.011 51.6966 186.011C56.2646 186.011 59.9682 182.429 59.9682 178.011Z" fill="black"/>
<path fill-rule="evenodd" clip-rule="evenodd" d="M51.6966 106.011C45.986 106.011 41.3571 101.534 41.3571 96.0107C41.3571 90.4877 45.986 86.0107 51.6966 86.0107C57.4071 86.0107 62.0361 90.4877 62.0361 96.0107C67.7466 96.0107 72.3756 100.488 72.3756 106.011C72.3756 111.534 67.7466 116.011 62.0361 116.011C56.3256 116.011 51.6966 111.534 51.6966 106.011ZM10.3385 146.011C4.62802 146.011 -0.000976562 141.534 -0.000976562 136.011C-0.000976562 130.488 4.62802 126.011 10.3385 126.011C16.049 126.011 20.678 130.488 20.678 136.011C26.3885 136.011 31.0175 140.488 31.0175 146.011C31.0175 151.534 26.3885 156.011 20.678 156.011C14.9675 156.011 10.3385 151.534 10.3385 146.011ZM18.6101 136.011C18.6101 131.593 14.9065 128.011 10.3385 128.011C5.77054 128.011 2.06692 131.593 2.06692 136.011C2.06692 140.429 5.77054 144.011 10.3385 144.011C14.9065 144.011 18.6101 140.429 18.6101 136.011ZM59.9682 96.0107C59.9682 91.5927 56.2646 88.0107 51.6966 88.0107C47.1286 88.0107 43.425 91.5927 43.425 96.0107C43.425 100.429 47.1286 104.011 51.6966 104.011C56.2646 104.011 59.9682 100.429 59.9682 96.0107Z" fill="black"/>
<path fill-rule="evenodd" clip-rule="evenodd" d="M136.481 516.011C130.77 516.011 126.141 511.534 126.141 506.011C126.141 500.488 130.77 496.011 136.481 496.011C142.191 496.011 146.82 500.488 146.82 506.011C152.531 506.011 157.16 510.488 157.16 516.011C157.16 521.534 152.531 526.011 146.82 526.011C141.11 526.011 136.481 521.534 136.481 516.011ZM95.1227 556.011C89.4122 556.011 84.7832 551.534 84.7832 546.011C84.7832 540.488 89.4122 536.011 95.1227 536.011C100.833 536.011 105.462 540.488 105.462 546.011C111.173 546.011 115.802 550.488 115.802 556.011C115.802 561.534 111.173 566.011 105.462 566.011C99.7517 566.011 95.1227 561.534 95.1227 556.011ZM103.394 546.011C103.394 541.593 99.6907 538.011 95.1227 538.011C90.5547 538.011 86.8511 541.593 86.8511 546.011C86.8511 550.429 90.5547 554.011 95.1227 554.011C99.6907 554.011 103.394 550.429 103.394 546.011ZM144.752 506.011C144.752 501.593 141.049 498.011 136.481 498.011C131.913 498.011 128.209 501.593 128.209 506.011C128.209 510.429 131.913 514.011 136.481 514.011C141.049 514.011 144.752 510.429 144.752 506.011Z" fill="black"/>
<path fill-rule="evenodd" clip-rule="evenodd" d="M136.481 434.011C130.77 434.011 126.141 429.534 126.141 424.011C126.141 418.488 130.77 414.011 136.481 414.011C142.191 414.011 146.82 418.488 146.82 424.011C152.531 424.011 157.16 428.488 157.16 434.011C157.16 439.534 152.531 444.011 146.82 444.011C141.11 444.011 136.481 439.534 136.481 434.011ZM95.1227 474.011C89.4122 474.011 84.7832 469.534 84.7832 464.011C84.7832 458.488 89.4122 454.011 95.1227 454.011C100.833 454.011 105.462 458.488 105.462 464.011C111.173 464.011 115.802 468.488 115.802 474.011C115.802 479.534 111.173 484.011 105.462 484.011C99.7517 484.011 95.1227 479.534 95.1227 474.011ZM103.394 464.011C103.394 459.593 99.6907 456.011 95.1227 456.011C90.5547 456.011 86.8511 459.593 86.8511 464.011C86.8511 468.429 90.5547 472.011 95.1227 472.011C99.6907 472.011 103.394 468.429 103.394 464.011ZM144.752 424.011C144.752 419.593 141.049 416.011 136.481 416.011C131.913 416.011 128.209 419.593 128.209 424.011C128.209 428.429 131.913 432.011 136.481 432.011C141.049 432.011 144.752 428.429 144.752 424.011Z" fill="black"/>
<path fill-rule="evenodd" clip-rule="evenodd" d="M136.481 352.011C130.77 352.011 126.141 347.534 126.141 342.011C126.141 336.488 130.77 332.011 136.481 332.011C142.191 332.011 146.82 336.488 146.82 342.011C152.531 342.011 157.16 346.488 157.16 352.011C157.16 357.534 152.531 362.011 146.82 362.011C141.11 362.011 136.481 357.534 136.481 352.011ZM95.1227 392.011C89.4122 392.011 84.7832 387.534 84.7832 382.011C84.7832 376.488 89.4122 372.011 95.1227 372.011C100.833 372.011 105.462 376.488 105.462 382.011C111.173 382.011 115.802 386.488 115.802 392.011C115.802 397.534 111.173 402.011 105.462 402.011C99.7517 402.011 95.1227 397.534 95.1227 392.011ZM103.394 382.011C103.394 377.593 99.6907 374.011 95.1227 374.011C90.5547 374.011 86.8511 377.593 86.8511 382.011C86.8511 386.429 90.5547 390.011 95.1227 390.011C99.6907 390.011 103.394 386.429 103.394 382.011ZM144.752 342.011C144.752 337.593 141.049 334.011 136.481 334.011C131.913 334.011 128.209 337.593 128.209 342.011C128.209 346.429 131.913 350.011 136.481 350.011C141.049 350.011 144.752 346.429 144.752 342.011Z" fill="black"/>
<path fill-rule="evenodd" clip-rule="evenodd" d="M136.481 270.011C130.77 270.011 126.141 265.534 126.141 260.011C126.141 254.488 130.77 250.011 136.481 250.011C142.191 250.011 146.82 254.488 146.82 260.011C152.531 260.011 157.16 264.488 157.16 270.011C157.16 275.534 152.531 280.011 146.82 280.011C141.11 280.011 136.481 275.534 136.481 270.011ZM95.1227 310.011C89.4122 310.011 84.7832 305.534 84.7832 300.011C84.7832 294.488 89.4122 290.011 95.1227 290.011C100.833 290.011 105.462 294.488 105.462 300.011C111.173 300.011 115.802 304.488 115.802 310.011C115.802 315.534 111.173 320.011 105.462 320.011C99.7517 320.011 95.1227 315.534 95.1227 310.011ZM103.394 300.011C103.394 295.593 99.6907 292.011 95.1227 292.011C90.5547 292.011 86.8511 295.593 86.8511 300.011C86.8511 304.429 90.5547 308.011 95.1227 308.011C99.6907 308.011 103.394 304.429 103.394 300.011ZM144.752 260.011C144.752 255.593 141.049 252.011 136.481 252.011C131.913 252.011 128.209 255.593 128.209 260.011C128.209 264.429 131.913 268.011 136.481 268.011C141.049 268.011 144.752 264.429 144.752 260.011Z" fill="black"/>
<path fill-rule="evenodd" clip-rule="evenodd" d="M136.481 188.011C130.77 188.011 126.141 183.534 126.141 178.011C126.141 172.488 130.77 168.011 136.481 168.011C142.191 168.011 146.82 172.488 146.82 178.011C152.531 178.011 157.16 182.488 157.16 188.011C157.16 193.534 152.531 198.011 146.82 198.011C141.11 198.011 136.481 193.534 136.481 188.011ZM95.1227 228.011C89.4122 228.011 84.7832 223.534 84.7832 218.011C84.7832 212.488 89.4122 208.011 95.1227 208.011C100.833 208.011 105.462 212.488 105.462 218.011C111.173 218.011 115.802 222.488 115.802 228.011C115.802 233.534 111.173 238.011 105.462 238.011C99.7517 238.011 95.1227 233.534 95.1227 228.011ZM103.394 218.011C103.394 213.593 99.6907 210.011 95.1227 210.011C90.5547 210.011 86.8511 213.593 86.8511 218.011C86.8511 222.429 90.5547 226.011 95.1227 226.011C99.6907 226.011 103.394 222.429 103.394 218.011ZM144.752 178.011C144.752 173.593 141.049 170.011 136.481 170.011C131.913 170.011 128.209 173.593 128.209 178.011C128.209 182.429 131.913 186.011 136.481 186.011C141.049 186.011 144.752 182.429 144.752 178.011Z" fill="black"/>
<path fill-rule="evenodd" clip-rule="evenodd" d="M136.481 106.011C130.77 106.011 126.141 101.534 126.141 96.0107C126.141 90.4877 130.77 86.0107 136.481 86.0107C142.191 86.0107 146.82 90.4877 146.82 96.0107C152.531 96.0107 157.16 100.488 157.16 106.011C157.16 111.534 152.531 116.011 146.82 116.011C141.11 116.011 136.481 111.534 136.481 106.011ZM95.1227 146.011C89.4122 146.011 84.7832 141.534 84.7832 136.011C84.7832 130.488 89.4122 126.011 95.1227 126.011C100.833 126.011 105.462 130.488 105.462 136.011C111.173 136.011 115.802 140.488 115.802 146.011C115.802 151.534 111.173 156.011 105.462 156.011C99.7517 156.011 95.1227 151.534 95.1227 146.011ZM103.394 136.011C103.394 131.593 99.6907 128.011 95.1227 128.011C90.5547 128.011 86.8511 131.593 86.8511 136.011C86.8511 140.429 90.5547 144.011 95.1227 144.011C99.6907 144.011 103.394 140.429 103.394 136.011ZM144.752 96.0107C144.752 91.5927 141.049 88.0107 136.481 88.0107C131.913 88.0107 128.209 91.5927 128.209 96.0107C128.209 100.429 131.913 104.011 136.481 104.011C141.049 104.011 144.752 100.429 144.752 96.0107Z" fill="black"/>
<path fill-rule="evenodd" clip-rule="evenodd" d="M221.264 516.011C215.554 516.011 210.925 511.534 210.925 506.011C210.925 500.488 215.554 496.011 221.264 496.011C226.975 496.011 231.604 500.488 231.604 506.011C237.314 506.011 241.943 510.488 241.943 516.011C241.943 521.534 237.314 526.011 231.604 526.011C225.893 526.011 221.264 521.534 221.264 516.011ZM179.906 556.011C174.196 556.011 169.567 551.534 169.567 546.011C169.567 540.488 174.196 536.011 179.906 536.011C185.617 536.011 190.246 540.488 190.246 546.011C195.956 546.011 200.585 550.488 200.585 556.011C200.585 561.534 195.956 566.011 190.246 566.011C184.535 566.011 179.906 561.534 179.906 556.011ZM188.178 546.011C188.178 541.593 184.474 538.011 179.906 538.011C175.338 538.011 171.635 541.593 171.635 546.011C171.635 550.429 175.338 554.011 179.906 554.011C184.474 554.011 188.178 550.429 188.178 546.011ZM229.536 506.011C229.536 501.593 225.832 498.011 221.264 498.011C216.696 498.011 212.993 501.593 212.993 506.011C212.993 510.429 216.696 514.011 221.264 514.011C225.832 514.011 229.536 510.429 229.536 506.011Z" fill="black"/>
<path fill-rule="evenodd" clip-rule="evenodd" d="M221.264 434.011C215.554 434.011 210.925 429.534 210.925 424.011C210.925 418.488 215.554 414.011 221.264 414.011C226.975 414.011 231.604 418.488 231.604 424.011C237.314 424.011 241.943 428.488 241.943 434.011C241.943 439.534 237.314 444.011 231.604 444.011C225.893 444.011 221.264 439.534 221.264 434.011ZM179.906 474.011C174.196 474.011 169.567 469.534 169.567 464.011C169.567 458.488 174.196 454.011 179.906 454.011C185.617 454.011 190.246 458.488 190.246 464.011C195.956 464.011 200.585 468.488 200.585 474.011C200.585 479.534 195.956 484.011 190.246 484.011C184.535 484.011 179.906 479.534 179.906 474.011ZM188.178 464.011C188.178 459.593 184.474 456.011 179.906 456.011C175.338 456.011 171.635 459.593 171.635 464.011C171.635 468.429 175.338 472.011 179.906 472.011C184.474 472.011 188.178 468.429 188.178 464.011ZM229.536 424.011C229.536 419.593 225.832 416.011 221.264 416.011C216.696 416.011 212.993 419.593 212.993 424.011C212.993 428.429 216.696 432.011 221.264 432.011C225.832 432.011 229.536 428.429 229.536 424.011Z" fill="black"/>
<path fill-rule="evenodd" clip-rule="evenodd" d="M221.264 352.011C215.554 352.011 210.925 347.534 210.925 342.011C210.925 336.488 215.554 332.011 221.264 332.011C226.975 332.011 231.604 336.488 231.604 342.011C237.314 342.011 241.943 346.488 241.943 352.011C241.943 357.534 237.314 362.011 231.604 362.011C225.893 362.011 221.264 357.534 221.264 352.011ZM179.906 392.011C174.196 392.011 169.567 387.534 169.567 382.011C169.567 376.488 174.196 372.011 179.906 372.011C185.617 372.011 190.246 376.488 190.246 382.011C195.956 382.011 200.585 386.488 200.585 392.011C200.585 397.534 195.956 402.011 190.246 402.011C184.535 402.011 179.906 397.534 179.906 392.011ZM188.178 382.011C188.178 377.593 184.474 374.011 179.906 374.011C175.338 374.011 171.635 377.593 171.635 382.011C171.635 386.429 175.338 390.011 179.906 390.011C184.474 390.011 188.178 386.429 188.178 382.011ZM229.536 342.011C229.536 337.593 225.832 334.011 221.264 334.011C216.696 334.011 212.993 337.593 212.993 342.011C212.993 346.429 216.696 350.011 221.264 350.011C225.832 350.011 229.536 346.429 229.536 342.011Z" fill="black"/>
<path fill-rule="evenodd" clip-rule="evenodd" d="M221.264 270.011C215.554 270.011 210.925 265.534 210.925 260.011C210.925 254.488 215.554 250.011 221.264 250.011C226.975 250.011 231.604 254.488 231.604 260.011C237.314 260.011 241.943 264.488 241.943 270.011C241.943 275.534 237.314 280.011 231.604 280.011C225.893 280.011 221.264 275.534 221.264 270.011ZM179.906 310.011C174.196 310.011 169.567 305.534 169.567 300.011C169.567 294.488 174.196 290.011 179.906 290.011C185.617 290.011 190.246 294.488 190.246 300.011C195.956 300.011 200.585 304.488 200.585 310.011C200.585 315.534 195.956 320.011 190.246 320.011C184.535 320.011 179.906 315.534 179.906 310.011ZM188.178 300.011C188.178 295.593 184.474 292.011 179.906 292.011C175.338 292.011 171.635 295.593 171.635 300.011C171.635 304.429 175.338 308.011 179.906 308.011C184.474 308.011 188.178 304.429 188.178 300.011ZM229.536 260.011C229.536 255.593 225.832 252.011 221.264 252.011C216.696 252.011 212.993 255.593 212.993 260.011C212.993 264.429 216.696 268.011 221.264 268.011C225.832 268.011 229.536 264.429 229.536 260.011Z" fill="black"/>
<path fill-rule="evenodd" clip-rule="evenodd" d="M221.264 188.011C215.554 188.011 210.925 183.534 210.925 178.011C210.925 172.488 215.554 168.011 221.264 168.011C226.975 168.011 231.604 172.488 231.604 178.011C237.314 178.011 241.943 182.488 241.943 188.011C241.943 193.534 237.314 198.011 231.604 198.011C225.893 198.011 221.264 193.534 221.264 188.011ZM179.906 228.011C174.196 228.011 169.567 223.534 169.567 218.011C169.567 212.488 174.196 208.011 179.906 208.011C185.617 208.011 190.246 212.488 190.246 218.011C195.956 218.011 200.585 222.488 200.585 228.011C200.585 233.534 195.956 238.011 190.246 238.011C184.535 238.011 179.906 233.534 179.906 228.011ZM188.178 218.011C188.178 213.593 184.474 210.011 179.906 210.011C175.338 210.011 171.635 213.593 171.635 218.011C171.635 222.429 175.338 226.011 179.906 226.011C184.474 226.011 188.178 222.429 188.178 218.011ZM229.536 178.011C229.536 173.593 225.832 170.011 221.264 170.011C216.696 170.011 212.993 173.593 212.993 178.011C212.993 182.429 216.696 186.011 221.264 186.011C225.832 186.011 229.536 182.429 229.536 178.011Z" fill="black"/>
<path fill-rule="evenodd" clip-rule="evenodd" d="M221.264 106.011C215.554 106.011 210.925 101.534 210.925 96.0107C210.925 90.4877 215.554 86.0107 221.264 86.0107C226.975 86.0107 231.604 90.4877 231.604 96.0107C237.314 96.0107 241.943 100.488 241.943 106.011C241.943 111.534 237.314 116.011 231.604 116.011C225.893 116.011 221.264 111.534 221.264 106.011ZM179.906 146.011C174.196 146.011 169.567 141.534 169.567 136.011C169.567 130.488 174.196 126.011 179.906 126.011C185.617 126.011 190.246 130.488 190.246 136.011C195.956 136.011 200.585 140.488 200.585 146.011C200.585 151.534 195.956 156.011 190.246 156.011C184.535 156.011 179.906 151.534 179.906 146.011ZM188.178 136.011C188.178 131.593 184.474 128.011 179.906 128.011C175.338 128.011 171.635 131.593 171.635 136.011C171.635 140.429 175.338 144.011 179.906 144.011C184.474 144.011 188.178 140.429 188.178 136.011ZM229.536 96.0107C229.536 91.5927 225.832 88.0107 221.264 88.0107C216.696 88.0107 212.993 91.5927 212.993 96.0107C212.993 100.429 216.696 104.011 221.264 104.011C225.832 104.011 229.536 100.429 229.536 96.0107Z" fill="black"/>
<path fill-rule="evenodd" clip-rule="evenodd" d="M306.049 516.011C300.338 516.011 295.709 511.534 295.709 506.011C295.709 500.488 300.338 496.011 306.049 496.011C311.759 496.011 316.388 500.488 316.388 506.011C322.099 506.011 326.728 510.488 326.728 516.011C326.728 521.534 322.099 526.011 316.388 526.011C310.678 526.011 306.049 521.534 306.049 516.011ZM264.691 556.011C258.98 556.011 254.351 551.534 254.351 546.011C254.351 540.488 258.98 536.011 264.691 536.011C270.401 536.011 275.03 540.488 275.03 546.011C280.741 546.011 285.37 550.488 285.37 556.011C285.37 561.534 280.741 566.011 275.03 566.011C269.32 566.011 264.691 561.534 264.691 556.011ZM272.962 546.011C272.962 541.593 269.259 538.011 264.691 538.011C260.123 538.011 256.419 541.593 256.419 546.011C256.419 550.429 260.123 554.011 264.691 554.011C269.259 554.011 272.962 550.429 272.962 546.011ZM314.32 506.011C314.32 501.593 310.617 498.011 306.049 498.011C301.481 498.011 297.777 501.593 297.777 506.011C297.777 510.429 301.481 514.011 306.049 514.011C310.617 514.011 314.32 510.429 314.32 506.011Z" fill="black"/>
<path fill-rule="evenodd" clip-rule="evenodd" d="M306.049 434.011C300.338 434.011 295.709 429.534 295.709 424.011C295.709 418.488 300.338 414.011 306.049 414.011C311.759 414.011 316.388 418.488 316.388 424.011C322.099 424.011 326.728 428.488 326.728 434.011C326.728 439.534 322.099 444.011 316.388 444.011C310.678 444.011 306.049 439.534 306.049 434.011ZM264.691 474.011C258.98 474.011 254.351 469.534 254.351 464.011C254.351 458.488 258.98 454.011 264.691 454.011C270.401 454.011 275.03 458.488 275.03 464.011C280.741 464.011 285.37 468.488 285.37 474.011C285.37 479.534 280.741 484.011 275.03 484.011C269.32 484.011 264.691 479.534 264.691 474.011ZM272.962 464.011C272.962 459.593 269.259 456.011 264.691 456.011C260.123 456.011 256.419 459.593 256.419 464.011C256.419 468.429 260.123 472.011 264.691 472.011C269.259 472.011 272.962 468.429 272.962 464.011ZM314.32 424.011C314.32 419.593 310.617 416.011 306.049 416.011C301.481 416.011 297.777 419.593 297.777 424.011C297.777 428.429 301.481 432.011 306.049 432.011C310.617 432.011 314.32 428.429 314.32 424.011Z" fill="black"/>
<path fill-rule="evenodd" clip-rule="evenodd" d="M306.049 352.011C300.338 352.011 295.709 347.534 295.709 342.011C295.709 336.488 300.338 332.011 306.049 332.011C311.759 332.011 316.388 336.488 316.388 342.011C322.099 342.011 326.728 346.488 326.728 352.011C326.728 357.534 322.099 362.011 316.388 362.011C310.678 362.011 306.049 357.534 306.049 352.011ZM264.691 392.011C258.98 392.011 254.351 387.534 254.351 382.011C254.351 376.488 258.98 372.011 264.691 372.011C270.401 372.011 275.03 376.488 275.03 382.011C280.741 382.011 285.37 386.488 285.37 392.011C285.37 397.534 280.741 402.011 275.03 402.011C269.32 402.011 264.691 397.534 264.691 392.011ZM272.962 382.011C272.962 377.593 269.259 374.011 264.691 374.011C260.123 374.011 256.419 377.593 256.419 382.011C256.419 386.429 260.123 390.011 264.691 390.011C269.259 390.011 272.962 386.429 272.962 382.011ZM314.32 342.011C314.32 337.593 310.617 334.011 306.049 334.011C301.481 334.011 297.777 337.593 297.777 342.011C297.777 346.429 301.481 350.011 306.049 350.011C310.617 350.011 314.32 346.429 314.32 342.011Z" fill="black"/>
<path fill-rule="evenodd" clip-rule="evenodd" d="M306.049 270.011C300.338 270.011 295.709 265.534 295.709 260.011C295.709 254.488 300.338 250.011 306.049 250.011C311.759 250.011 316.388 254.488 316.388 260.011C322.099 260.011 326.728 264.488 326.728 270.011C326.728 275.534 322.099 280.011 316.388 280.011C310.678 280.011 306.049 275.534 306.049 270.011ZM264.691 310.011C258.98 310.011 254.351 305.534 254.351 300.011C254.351 294.488 258.98 290.011 264.691 290.011C270.401 290.011 275.03 294.488 275.03 300.011C280.741 300.011 285.37 304.488 285.37 310.011C285.37 315.534 280.741 320.011 275.03 320.011C269.32 320.011 264.691 315.534 264.691 310.011ZM272.962 300.011C272.962 295.593 269.259 292.011 264.691 292.011C260.123 292.011 256.419 295.593 256.419 300.011C256.419 304.429 260.123 308.011 264.691 308.011C269.259 308.011 272.962 304.429 272.962 300.011ZM314.32 260.011C314.32 255.593 310.617 252.011 306.049 252.011C301.481 252.011 297.777 255.593 297.777 260.011C297.777 264.429 301.481 268.011 306.049 268.011C310.617 268.011 314.32 264.429 314.32 260.011Z" fill="black"/>
<path fill-rule="evenodd" clip-rule="evenodd" d="M306.049 188.011C300.338 188.011 295.709 183.534 295.709 178.011C295.709 172.488 300.338 168.011 306.049 168.011C311.759 168.011 316.388 172.488 316.388 178.011C322.099 178.011 326.728 182.488 326.728 188.011C326.728 193.534 322.099 198.011 316.388 198.011C310.678 198.011 306.049 193.534 306.049 188.011ZM264.691 228.011C258.98 228.011 254.351 223.534 254.351 218.011C254.351 212.488 258.98 208.011 264.691 208.011C270.401 208.011 275.03 212.488 275.03 218.011C280.741 218.011 285.37 222.488 285.37 228.011C285.37 233.534 280.741 238.011 275.03 238.011C269.32 238.011 264.691 233.534 264.691 228.011ZM272.962 218.011C272.962 213.593 269.259 210.011 264.691 210.011C260.123 210.011 256.419 213.593 256.419 218.011C256.419 222.429 260.123 226.011 264.691 226.011C269.259 226.011 272.962 222.429 272.962 218.011ZM314.32 178.011C314.32 173.593 310.617 170.011 306.049 170.011C301.481 170.011 297.777 173.593 297.777 178.011C297.777 182.429 301.481 186.011 306.049 186.011C310.617 186.011 314.32 182.429 314.32 178.011Z" fill="black"/>
<path fill-rule="evenodd" clip-rule="evenodd" d="M306.049 106.011C300.338 106.011 295.709 101.534 295.709 96.0107C295.709 90.4877 300.338 86.0107 306.049 86.0107C311.759 86.0107 316.388 90.4877 316.388 96.0107C322.099 96.0107 326.728 100.488 326.728 106.011C326.728 111.534 322.099 116.011 316.388 116.011C310.678 116.011 306.049 111.534 306.049 106.011ZM264.691 146.011C258.98 146.011 254.351 141.534 254.351 136.011C254.351 130.488 258.98 126.011 264.691 126.011C270.401 126.011 275.03 130.488 275.03 136.011C280.741 136.011 285.37 140.488 285.37 146.011C285.37 151.534 280.741 156.011 275.03 156.011C269.32 156.011 264.691 151.534 264.691 146.011ZM272.962 136.011C272.962 131.593 269.259 128.011 264.691 128.011C260.123 128.011 256.419 131.593 256.419 136.011C256.419 140.429 260.123 144.011 264.691 144.011C269.259 144.011 272.962 140.429 272.962 136.011ZM314.32 96.0107C314.32 91.5927 310.617 88.0107 306.049 88.0107C301.481 88.0107 297.777 91.5927 297.777 96.0107C297.777 100.429 301.481 104.011 306.049 104.011C310.617 104.011 314.32 100.429 314.32 96.0107Z" fill="black"/>
<path fill-rule="evenodd" clip-rule="evenodd" d="M51.6966 24.0107C45.986 24.0107 41.3571 19.5337 41.3571 14.0107C41.3571 8.48774 45.986 4.01074 51.6966 4.01074C57.4071 4.01074 62.0361 8.48774 62.0361 14.0107C67.7466 14.0107 72.3756 18.4877 72.3756 24.0107C72.3756 29.5337 67.7466 34.0107 62.0361 34.0107C56.3256 34.0107 51.6966 29.5337 51.6966 24.0107ZM10.3385 64.0107C4.62802 64.0107 -0.000976562 59.5337 -0.000976562 54.0107C-0.000976562 48.4877 4.62802 44.0107 10.3385 44.0107C16.049 44.0107 20.678 48.4877 20.678 54.0107C26.3885 54.0107 31.0175 58.4877 31.0175 64.0107C31.0175 69.5337 26.3885 74.0107 20.678 74.0107C14.9675 74.0107 10.3385 69.5337 10.3385 64.0107ZM18.6101 54.0107C18.6101 49.5927 14.9065 46.0107 10.3385 46.0107C5.77054 46.0107 2.06692 49.5927 2.06692 54.0107C2.06692 58.4287 5.77054 62.0107 10.3385 62.0107C14.9065 62.0107 18.6101 58.4287 18.6101 54.0107ZM59.9682 14.0107C59.9682 9.59274 56.2646 6.01074 51.6966 6.01074C47.1286 6.01074 43.425 9.59274 43.425 14.0107C43.425 18.4287 47.1286 22.0107 51.6966 22.0107C56.2646 22.0107 59.9682 18.4287 59.9682 14.0107Z" fill="black"/>
<path fill-rule="evenodd" clip-rule="evenodd" d="M136.481 24.0107C130.77 24.0107 126.141 19.5337 126.141 14.0107C126.141 8.48774 130.77 4.01074 136.481 4.01074C142.191 4.01074 146.82 8.48774 146.82 14.0107C152.531 14.0107 157.16 18.4877 157.16 24.0107C157.16 29.5337 152.531 34.0107 146.82 34.0107C141.11 34.0107 136.481 29.5337 136.481 24.0107ZM95.1227 64.0107C89.4122 64.0107 84.7832 59.5337 84.7832 54.0107C84.7832 48.4877 89.4122 44.0107 95.1227 44.0107C100.833 44.0107 105.462 48.4877 105.462 54.0107C111.173 54.0107 115.802 58.4877 115.802 64.0107C115.802 69.5337 111.173 74.0107 105.462 74.0107C99.7517 74.0107 95.1227 69.5337 95.1227 64.0107ZM103.394 54.0107C103.394 49.5927 99.6907 46.0107 95.1227 46.0107C90.5547 46.0107 86.8511 49.5927 86.8511 54.0107C86.8511 58.4287 90.5547 62.0107 95.1227 62.0107C99.6907 62.0107 103.394 58.4287 103.394 54.0107ZM144.752 14.0107C144.752 9.59274 141.049 6.01074 136.481 6.01074C131.913 6.01074 128.209 9.59274 128.209 14.0107C128.209 18.4287 131.913 22.0107 136.481 22.0107C141.049 22.0107 144.752 18.4287 144.752 14.0107Z" fill="black"/>
<path fill-rule="evenodd" clip-rule="evenodd" d="M221.264 24.0107C215.554 24.0107 210.925 19.5337 210.925 14.0107C210.925 8.48774 215.554 4.01074 221.264 4.01074C226.975 4.01074 231.604 8.48774 231.604 14.0107C237.314 14.0107 241.943 18.4877 241.943 24.0107C241.943 29.5337 237.314 34.0107 231.604 34.0107C225.893 34.0107 221.264 29.5337 221.264 24.0107ZM179.906 64.0107C174.196 64.0107 169.567 59.5337 169.567 54.0107C169.567 48.4877 174.196 44.0107 179.906 44.0107C185.617 44.0107 190.246 48.4877 190.246 54.0107C195.956 54.0107 200.585 58.4877 200.585 64.0107C200.585 69.5337 195.956 74.0107 190.246 74.0107C184.535 74.0107 179.906 69.5337 179.906 64.0107ZM188.178 54.0107C188.178 49.5927 184.474 46.0107 179.906 46.0107C175.338 46.0107 171.635 49.5927 171.635 54.0107C171.635 58.4287 175.338 62.0107 179.906 62.0107C184.474 62.0107 188.178 58.4287 188.178 54.0107ZM229.536 14.0107C229.536 9.59274 225.832 6.01074 221.264 6.01074C216.696 6.01074 212.993 9.59274 212.993 14.0107C212.993 18.4287 216.696 22.0107 221.264 22.0107C225.832 22.0107 229.536 18.4287 229.536 14.0107Z" fill="black"/>
<path fill-rule="evenodd" clip-rule="evenodd" d="M306.049 24.0107C300.338 24.0107 295.709 19.5337 295.709 14.0107C295.709 8.48774 300.338 4.01074 306.049 4.01074C311.759 4.01074 316.388 8.48774 316.388 14.0107C322.099 14.0107 326.728 18.4877 326.728 24.0107C326.728 29.5337 322.099 34.0107 316.388 34.0107C310.678 34.0107 306.049 29.5337 306.049 24.0107ZM264.691 64.0107C258.98 64.0107 254.351 59.5337 254.351 54.0107C254.351 48.4877 258.98 44.0107 264.691 44.0107C270.401 44.0107 275.03 48.4877 275.03 54.0107C280.741 54.0107 285.37 58.4877 285.37 64.0107C285.37 69.5337 280.741 74.0107 275.03 74.0107C269.32 74.0107 264.691 69.5337 264.691 64.0107ZM272.962 54.0107C272.962 49.5927 269.259 46.0107 264.691 46.0107C260.123 46.0107 256.419 49.5927 256.419 54.0107C256.419 58.4287 260.123 62.0107 264.691 62.0107C269.259 62.0107 272.962 58.4287 272.962 54.0107ZM314.32 14.0107C314.32 9.59274 310.617 6.01074 306.049 6.01074C301.481 6.01074 297.777 9.59274 297.777 14.0107C297.777 18.4287 301.481 22.0107 306.049 22.0107C310.617 22.0107 314.32 18.4287 314.32 14.0107Z" fill="black"/>
</g>
<defs>
<clipPath id="clip0">
<path d="M-0.000976562 566.011L-0.000976562 0.0107422H334.999L334.999 566.011H-0.000976562Z" fill="white"/>
</clipPath>
</defs>
</svg>
